<?xml version="1.0" standalone="no"?>
<!DOCTYPE svg PUBLIC "-//W3C//DTD SVG 20010904//EN"
 "http://www.w3.org/TR/2001/REC-SVG-20010904/DTD/svg10.dtd">
<svg version="1.0" xmlns="http://www.w3.org/2000/svg"
 width="500.000000pt" height="500.000000pt" viewBox="0 0 500.000000 500.000000"
 preserveAspectRatio="xMidYMid meet">

<g transform="translate(0.000000,500.000000) scale(0.100000,-0.100000)"
fill="#000000" stroke="none">
<path d="M0 2500 l0 -2500 2500 0 2500 0 0 2500 0 2500 -2500 0 -2500 0 0
-2500z m2323 1383 c-7 -2 -19 -2 -25 0 -7 3 -2 5 12 5 14 0 19 -2 13 -5z m300
0 c-13 -2 -35 -2 -50 0 -16 2 -5 4 22 4 28 0 40 -2 28 -4z m-376 -9 c-3 -3
-12 -4 -19 -1 -8 3 -5 6 6 6 11 1 17 -2 13 -5z m488 -4 c42 -11 1 -11 -50 -1
-34 7 -35 9 -10 9 17 0 44 -4 60 -8z m-548 -6 c-3 -3 -12 -4 -19 -1 -8 3 -5 6
6 6 11 1 17 -2 13 -5z m610 -10 c-3 -3 -12 -4 -19 -1 -8 3 -5 6 6 6 11 1 17
-2 13 -5z m58 -14 c13 -5 14 -9 5 -9 -8 0 -24 4 -35 9 -13 5 -14 9 -5 9 8 0
24 -4 35 -9z m172 -60 c50 -22 125 -59 166 -84 77 -45 187 -123 187 -132 0 -2
-24 13 -52 34 -110 81 -240 151 -378 204 -41 16 -61 26 -45 23 17 -4 71 -24
122 -45z m-666 -155 c13 5 19 2 19 -10 0 -12 -8 -16 -32 -13 -31 3 -33 5 -36
47 -5 68 10 85 20 23 8 -46 12 -52 29 -47z m227 86 c8 -4 13 -17 11 -27 -1
-11 1 -27 6 -37 10 -24 -12 -47 -46 -47 -28 0 -29 1 -29 53 0 30 3 57 7 60 9
10 35 8 51 -2z m230 -37 c30 -8 28 -24 -3 -24 -14 0 -25 -4 -25 -10 0 -5 7
-10 15 -10 8 0 15 -6 15 -14 0 -9 -7 -12 -20 -9 -14 4 -20 0 -20 -11 0 -9 7
-16 15 -16 8 0 15 -5 15 -11 0 -10 -48 -5 -59 6 -7 8 23 105 33 105 6 0 21 -3
34 -6z m-679 -50 c32 -42 37 -70 8 -46 -17 14 -57 4 -57 -14 0 -8 -4 -14 -10
-14 -11 0 -13 28 -4 83 4 20 12 37 18 37 6 0 26 -21 45 -46z m-479 22 c0 -2
-8 -10 -17 -17 -16 -13 -17 -12 -4 4 13 16 21 21 21 13z m-40 -30 c0 -2 -8
-10 -17 -17 -16 -13 -17 -12 -4 4 13 16 21 21 21 13z m1379 -70 c-13 -25 -27
-46 -31 -46 -12 0 -10 14 13 65 13 30 24 44 31 37 6 -6 1 -26 -13 -56z m-1419
41 c0 -2 -12 -14 -27 -28 l-28 -24 24 28 c23 25 31 32 31 24z m315 -16 c3 -5
-7 -11 -22 -13 -14 -2 -28 -9 -31 -17 -3 -10 3 -11 27 -6 34 7 61 -7 61 -31 0
-21 -46 -47 -70 -39 -25 8 -17 20 13 20 38 0 30 24 -10 27 -28 2 -39 8 -42 22
-6 32 57 63 74 37z m1540 -51 c21 -22 37 -40 34 -40 -3 0 -23 18 -44 40 -21
22 -37 40 -34 40 3 0 23 -18 44 -40z m-2030 -108 l-39 -37 35 41 c19 22 36 39
39 37 2 -2 -13 -20 -35 -41z m285 23 c10 -12 10 -22 2 -39 -6 -13 -8 -33 -5
-45 9 -34 -13 -24 -47 22 l-31 42 22 18 c26 21 43 22 59 2z m1880 -50 c13 -14
21 -25 18 -25 -2 0 -15 11 -28 25 -13 14 -21 25 -18 25 2 0 15 -11 28 -25z
m-236 8 c3 -4 -8 -22 -26 -41 -31 -31 -32 -34 -15 -46 9 -7 17 -16 17 -20 0
-13 -28 -5 -45 14 -17 19 -17 21 16 59 36 41 42 45 53 34z m-1964 -27 c0 -2
-8 -10 -17 -17 -16 -13 -17 -12 -4 4 13 16 21 21 21 13z m-30 -40 c0 -2 -8
-10 -17 -17 -16 -13 -17 -12 -4 4 13 16 21 21 21 13z m2121 -138 c-24 -21 -48
-35 -54 -31 -6 4 7 22 33 44 24 21 48 35 54 32 5 -4 -10 -24 -33 -45z m155
-129 c3 -6 -7 -24 -22 -41 l-29 -30 41 7 c27 4 44 2 49 -5 7 -12 -62 -79 -82
-80 -21 0 -15 17 15 40 l27 21 -42 -6 c-50 -8 -56 5 -20 43 l22 24 -25 -7
c-38 -11 -42 -11 -46 1 -3 6 17 17 43 26 60 20 60 20 69 7z m-1019 -68 c43
-20 73 -62 73 -102 0 -71 -102 -176 -156 -163 -17 4 -24 2 -24 -8 0 -7 -28
-26 -63 -41 -35 -15 -80 -41 -100 -58 l-37 -30 0 -84 c0 -90 10 -132 35 -141
22 -9 27 -1 16 29 -23 59 24 136 103 173 63 29 109 33 55 4 -40 -21 -89 -74
-89 -95 0 -29 24 -66 55 -85 18 -11 88 -34 155 -50 67 -17 134 -37 149 -44
104 -55 128 -191 50 -280 -43 -50 -106 -71 -209 -71 -97 1 -163 20 -234 66
l-46 31 0 79 c0 43 2 79 4 79 3 0 16 -26 31 -57 52 -115 149 -183 260 -183 76
0 138 27 165 72 25 41 25 73 1 118 -25 48 -76 74 -206 106 -109 27 -174 52
-207 81 -13 12 -43 15 -130 15 -77 -1 -106 2 -91 8 36 15 43 68 43 327 0 243
-5 286 -37 311 -14 10 22 12 188 12 179 0 209 -3 246 -19z m-1463 -80 c-36
-124 -46 -202 -46 -342 1 -147 23 -260 77 -400 42 -110 43 -113 30 -117 -5 -2
-17 -8 -26 -12 -11 -7 -20 -2 -31 18 -23 40 -55 191 -69 320 -18 172 8 396 67
575 26 78 24 49 -2 -42z m2716 4 c0 -5 -5 -3 -10 5 -5 8 -10 20 -10 25 0 6 5
3 10 -5 5 -8 10 -19 10 -25z m-120 -124 c0 -8 -82 -41 -102 -41 -23 0 -3 20
35 33 50 18 67 20 67 8z m167 -43 c-3 -8 -6 -5 -6 6 -1 11 2 17 5 13 3 -3 4
-12 1 -19z m10 -50 c-3 -7 -5 -2 -5 12 0 14 2 19 5 13 2 -7 2 -19 0 -25z m10
-55 c-3 -10 -5 -4 -5 12 0 17 2 24 5 18 2 -7 2 -21 0 -30z m-134 -60 c5 -46
-1 -60 -17 -37 -10 13 -22 16 -54 11 -32 -4 -42 -2 -42 9 0 8 10 14 23 14 38
0 67 12 67 26 0 31 18 12 23 -23z m144 -15 c-2 -13 -4 -5 -4 17 -1 22 1 32 4
23 2 -10 2 -28 0 -40z m-1212 18 c56 -15 130 -50 141 -67 7 -12 -15 -89 -25
-89 -3 0 -19 19 -36 41 -44 60 -92 92 -165 110 l-65 17 50 1 c28 0 73 -5 100
-13z m1222 -243 c-2 -38 -3 -7 -3 67 0 74 1 105 3 68 2 -38 2 -98 0 -135z
m-145 32 c2 -3 3 -18 0 -35 -5 -33 -22 -41 -22 -10 0 11 -4 20 -10 20 -5 0
-10 -9 -10 -20 0 -11 -4 -20 -10 -20 -5 0 -10 9 -10 20 0 11 -7 20 -15 20 -8
0 -15 -9 -15 -20 0 -11 -4 -20 -10 -20 -5 0 -10 16 -10 35 l0 35 53 0 c30 0
56 -2 59 -5z m135 -162 c-3 -10 -5 -4 -5 12 0 17 2 24 5 18 2 -7 2 -21 0 -30z
m-10 -65 c-3 -7 -5 -2 -5 12 0 14 2 19 5 13 2 -7 2 -19 0 -25z m-191 1 c32 -8
44 -16 44 -30 0 -25 -35 -59 -60 -59 -23 0 -60 33 -60 54 0 22 11 46 22 46 5
0 29 -5 54 -11z m181 -51 c-3 -8 -6 -5 -6 6 -1 11 2 17 5 13 3 -3 4 -12 1 -19z
m-2613 -280 c-4 -6 -3 -8 4 -4 6 3 20 -7 31 -22 16 -23 18 -32 8 -41 -7 -7 -7
-12 -2 -11 21 4 36 0 30 -9 -3 -5 -1 -12 5 -16 5 -3 10 -17 10 -31 0 -17 -4
-23 -12 -18 -7 5 -8 3 -3 -5 5 -8 11 -9 17 -3 17 17 46 1 52 -30 4 -22 10 -29
21 -24 12 4 13 2 6 -12 -6 -12 -5 -23 5 -36 7 -10 11 -23 7 -29 -3 -6 -1 -7 5
-3 6 3 13 2 16 -3 3 -5 -1 -12 -10 -15 -13 -5 -14 -9 -4 -21 7 -9 15 -13 18
-10 9 9 41 -26 36 -40 -8 -19 21 -13 45 9 11 10 18 26 16 37 -2 10 0 21 4 23
6 4 7 -65 1 -71 -1 -2 -3 -11 -4 -20 -1 -10 -5 -24 -9 -30 -5 -8 -4 -13 2 -13
6 0 14 0 19 0 4 0 7 13 7 29 0 16 3 32 6 35 3 3 5 -8 5 -26 -1 -17 4 -33 10
-35 7 -2 11 7 9 26 l-2 30 48 -25 c27 -13 49 -27 49 -29 0 -3 -18 4 -40 15
-21 11 -41 20 -43 20 -4 0 -1 -53 3 -57 1 -2 3 -11 4 -20 1 -10 5 -25 10 -33
7 -12 7 -13 -5 -2 -8 7 -14 23 -14 34 0 12 -5 23 -12 25 -8 3 -11 -3 -8 -17 9
-49 -188 148 -286 286 -61 86 -150 242 -131 230 7 -4 20 -3 29 3 14 7 22 5 36
-10 10 -11 15 -24 11 -31z m236 -212 c0 -2 -6 -9 -14 -15 -11 -9 -16 -9 -22 0
-4 7 -3 9 4 5 6 -3 13 -2 17 4 6 10 15 14 15 6z m-25 -61 c1 0 10 7 21 15 15
11 16 11 7 0 -19 -21 -40 -20 -60 3 l-18 22 24 -20 c13 -11 24 -20 26 -20z
m402 9 c-3 -3 -12 -4 -19 -1 -8 3 -5 6 6 6 11 1 17 -2 13 -5z m-130 -10 c-3
-3 -12 -4 -19 -1 -8 3 -5 6 6 6 11 1 17 -2 13 -5z m-221 -19 c-1 -8 -8 -21
-14 -27 -23 -23 -12 -31 13 -8 13 12 22 27 18 33 -3 6 -1 7 6 3 8 -5 9 -12 3
-19 -5 -7 -8 -20 -7 -29 2 -9 -3 -22 -10 -28 -10 -8 -18 -4 -33 15 -11 14 -24
25 -29 24 -24 -4 -25 3 -3 18 14 10 28 18 32 18 3 0 10 3 14 8 11 10 13 9 10
-8z m291 -21 c-3 -3 -12 -4 -19 -1 -8 3 -5 6 6 6 11 1 17 -2 13 -5z m-97 -104
c8 -5 11 -10 5 -10 -5 0 -17 5 -25 10 -8 5 -10 10 -5 10 6 0 17 -5 25 -10z m6
-58 c-5 -4 -66 26 -66 33 0 3 16 -3 35 -12 19 -9 33 -18 31 -21z m-36 -27 c0
-2 -8 -2 -17 1 -12 4 -10 -1 7 -15 21 -18 22 -20 5 -15 l-20 6 20 -17 c11 -9
29 -23 40 -31 27 -20 -3 -6 -37 18 -15 11 -27 22 -27 26 1 4 0 9 -1 12 -1 3
-3 13 -5 22 -3 15 0 16 16 8 10 -6 19 -13 19 -15z m75 7 c-3 -3 -11 0 -18 7
-9 10 -8 11 6 5 10 -3 15 -9 12 -12z m11 -30 c-5 -4 -66 26 -66 33 0 3 16 -3
35 -12 19 -9 33 -18 31 -21z m44 -78 c0 -2 -9 0 -20 6 -11 6 -20 13 -20 16 0
2 9 0 20 -6 11 -6 20 -13 20 -16z m1440 7 c-43 -34 -202 -109 -295 -139 -99
-33 -168 -49 -147 -34 9 6 1 8 -26 6 -32 -2 -40 1 -35 11 2 8 8 14 11 13 4 0
16 0 27 1 15 1 17 3 7 10 -18 11 -10 47 9 43 8 -2 51 -3 95 -3 101 1 211 29
300 75 79 40 89 43 54 17z m-1374 -69 c-5 -4 -66 26 -66 33 0 3 16 -3 35 -12
19 -9 33 -18 31 -21z m907 -119 c-7 -2 -21 -2 -30 0 -10 3 -4 5 12 5 17 0 24
-2 18 -5z"/>
<path d="M2560 3686 c0 -9 5 -16 10 -16 6 0 10 4 10 9 0 6 -4 13 -10 16 -5 3
-10 -1 -10 -9z"/>
<path d="M2550 3635 c0 -8 7 -15 15 -15 8 0 15 7 15 15 0 8 -7 15 -15 15 -8 0
-15 -7 -15 -15z"/>
<path d="M2096 3615 c-3 -9 0 -15 9 -15 16 0 20 16 6 24 -5 3 -11 -1 -15 -9z"/>
<path d="M1646 3422 c-2 -4 -1 -14 4 -22 7 -11 12 -12 21 -3 6 6 8 16 5 22 -8
13 -23 14 -30 3z"/>
<path d="M2290 2803 l0 -196 23 20 c12 11 63 48 114 81 103 69 142 114 150
170 4 33 1 44 -23 71 -35 38 -79 50 -186 51 l-78 0 0 -197z"/>
<path d="M3682 2113 c4 -22 34 -29 54 -12 18 15 2 29 -34 29 -17 0 -23 -5 -20
-17z"/>
<path d="M1250 1850 c-8 -5 -12 -12 -9 -15 4 -3 12 1 19 10 14 17 11 19 -10 5z"/>
<path d="M1575 1430 c-10 -11 -23 -17 -29 -13 -6 4 -3 -3 8 -15 21 -24 36 -21
31 6 -1 9 2 23 8 30 16 20 2 14 -18 -8z m2 -25 c0 -8 -4 -12 -9 -9 -5 3 -6 10
-3 15 9 13 12 11 12 -6z"/>
<path d="M1615 1361 c-3 -5 -2 -12 3 -15 5 -3 9 1 9 9 0 17 -3 19 -12 6z"/>
<path d="M1514 1509 c-8 -14 14 -19 25 -6 8 10 7 14 -5 14 -8 0 -17 -4 -20 -8z"/>
<path d="M1551 1476 c-8 -10 -9 -16 -1 -21 5 -3 10 -5 11 -3 4 18 7 38 4 38
-1 0 -8 -6 -14 -14z"/>
</g>
</svg>
